<svg width="27" height="27" viewBox="0 0 27 27" fill="none" xmlns="http://www.w3.org/2000/svg">
<path d="M20.25 5.63625L20.2613 5.62388M23.625 4.5V22.5C23.625 23.0967 23.3879 23.669 22.966 24.091C22.544 24.5129 21.9717 24.75 21.375 24.75H5.625C5.02826 24.75 4.45597 24.5129 4.03401 24.091C3.61205 23.669 3.375 23.0967 3.375 22.5V4.5C3.375 3.90326 3.61205 3.33097 4.03401 2.90901C4.45597 2.48705 5.02826 2.25 5.625 2.25H21.375C21.9717 2.25 22.544 2.48705 22.966 2.90901C23.3879 3.33097 23.625 3.90326 23.625 4.5Z" stroke="#474747" stroke-width="1.5" stroke-linecap="round" stroke-linejoin="round"/>
<path d="M13.5 21.375C15.2902 21.375 17.0071 20.6638 18.273 19.398C19.5388 18.1321 20.25 16.4152 20.25 14.625C20.25 12.8348 19.5388 11.1179 18.273 9.85203C17.0071 8.58616 15.2902 7.875 13.5 7.875C11.7098 7.875 9.9929 8.58616 8.72703 9.85203C7.46116 11.1179 6.75 12.8348 6.75 14.625C6.75 16.4152 7.46116 18.1321 8.72703 19.398C9.9929 20.6638 11.7098 21.375 13.5 21.375Z" stroke="#474747" stroke-width="1.5" stroke-linecap="round" stroke-linejoin="round"/>
<path d="M13.5 18C12.6049 18 11.7464 17.6444 11.1135 17.0115C10.4806 16.3786 10.125 15.5201 10.125 14.625" stroke="#474747" stroke-width="1.5" stroke-linecap="round" stroke-linejoin="round"/>
</svg>
