<svg width="25" height="28" viewBox="0 0 25 28" fill="none" xmlns="http://www.w3.org/2000/svg">
<path d="M12.5 0.75C15.9035 0.75 18.9574 1.13685 21.1367 1.74707C22.2314 2.05359 23.063 2.40493 23.6035 2.7627C24.1733 3.13989 24.25 3.40453 24.25 3.5C24.25 3.59547 24.1733 3.86011 23.6035 4.2373C23.063 4.59507 22.2314 4.94641 21.1367 5.25293C18.9574 5.86315 15.9035 6.25 12.5 6.25C9.09651 6.25 6.04264 5.86315 3.86328 5.25293C2.76857 4.94641 1.93701 4.59507 1.39648 4.2373C0.826693 3.86011 0.75 3.59547 0.75 3.5C0.75 3.40453 0.826693 3.13989 1.39648 2.7627C1.93701 2.40493 2.76857 2.05359 3.86328 1.74707C6.04264 1.13685 9.09651 0.75 12.5 0.75Z" stroke="#474747" stroke-width="1.5"/>
<line x1="12.75" y1="6" x2="12.75" y2="28" stroke="#474747" stroke-width="1.5"/>
<line x1="6" y1="27.25" x2="20" y2="27.25" stroke="#474747" stroke-width="1.5"/>
</svg>
