<svg width="22" height="22" viewBox="0 0 22 22" fill="none" xmlns="http://www.w3.org/2000/svg">
<g clip-path="url(#clip0_303_2128)">
<path d="M6 5H16M6 8H16M8 16H14" stroke="#474747" stroke-width="1.5" stroke-linecap="round" stroke-linejoin="round"/>
<path d="M2 11H1.6C1.44087 11 1.28826 11.0632 1.17574 11.1757C1.06321 11.2883 1 11.4409 1 11.6V20.4C1 20.4788 1.01552 20.5568 1.04567 20.6296C1.07583 20.7024 1.12002 20.7685 1.17574 20.8243C1.23145 20.88 1.29759 20.9242 1.37039 20.9543C1.44319 20.9845 1.52121 21 1.6 21H20.4C20.4788 21 20.5568 20.9845 20.6296 20.9543C20.7024 20.9242 20.7685 20.88 20.8243 20.8243C20.88 20.7685 20.9242 20.7024 20.9543 20.6296C20.9845 20.5568 21 20.4788 21 20.4V11.6C21 11.4409 20.9368 11.2883 20.8243 11.1757C20.7117 11.0632 20.5591 11 20.4 11H20M2 11V1.6C2 1.44087 2.06321 1.28826 2.17574 1.17574C2.28826 1.06321 2.44087 1 2.6 1H19.4C19.5591 1 19.7117 1.06321 19.8243 1.17574C19.9368 1.28826 20 1.44087 20 1.6V11M2 11H20" stroke="#474747" stroke-width="1.5"/>
</g>
<defs>
<clipPath id="clip0_303_2128">
<rect width="22" height="22" fill="white"/>
</clipPath>
</defs>
</svg>
