<svg width="26" height="26" viewBox="0 0 26 26" fill="none" xmlns="http://www.w3.org/2000/svg">
<path d="M24.375 2.02881H1.625C0.731656 2.02881 0 2.76047 0 3.65381V22.3462C0 23.2395 0.731656 23.9712 1.625 23.9712H24.375C25.2683 23.9712 26 23.2395 26 22.3462V3.65381C26 2.76047 25.2683 2.02881 24.375 2.02881ZM24.375 22.3462L1.62503 22.3462V17.5585L8.14656 11.2385L14.8696 17.9542C15.1467 18.2906 15.6398 18.2479 15.99 17.9827L18.9577 15.2961L24.31 20.7902C24.3303 20.8106 24.3531 20.8256 24.375 20.8431L24.375 22.3462ZM24.375 18.5299L19.6008 13.6443C19.3111 13.3587 18.8574 13.3295 18.536 13.5744L15.4749 16.2411L8.74783 9.58668C8.677 9.50087 8.58935 9.43046 8.49028 9.37981C8.3912 9.32915 8.28281 9.29932 8.17177 9.29215C7.94793 9.28403 7.72731 9.35715 7.56318 9.51112L1.62503 15.29V3.65381H24.375V18.5299ZM18.6876 10.1595C19.5833 10.1595 20.3085 9.43312 20.3085 8.53856C20.3085 7.64438 19.5833 6.918 18.6876 6.918C17.7918 6.918 17.0666 7.64438 17.0666 8.53853C17.0666 9.43312 17.7918 10.1595 18.6876 10.1595Z" fill="#474747"/>
</svg>
