<svg width="31" height="31" viewBox="0 0 31 31" fill="none" xmlns="http://www.w3.org/2000/svg">
<path d="M15.5 15.5V18.0834M7.75 20.0209C7.75 19.6783 7.88609 19.3498 8.12832 19.1075C8.37056 18.8653 8.6991 18.7292 9.04167 18.7292H21.9583C22.3009 18.7292 22.6294 18.8653 22.8717 19.1075C23.1139 19.3498 23.25 19.6783 23.25 20.0209C23.25 20.706 22.9778 21.3631 22.4934 21.8476C22.0089 22.332 21.3518 22.6042 20.6667 22.6042H10.3333C9.64819 22.6042 8.99111 22.332 8.50664 21.8476C8.02217 21.3631 7.75 20.706 7.75 20.0209ZM8.56117 8.73946C8.87375 6.14062 9.02875 4.8425 9.7805 3.95512C10.019 3.67343 10.2965 3.42725 10.6046 3.22404C11.5733 2.58337 12.8831 2.58337 15.5 2.58337C18.1169 2.58337 19.4254 2.58337 20.3954 3.22404C20.7035 3.42725 20.981 3.67343 21.2195 3.95512C21.9712 4.8425 22.1275 6.14062 22.4388 8.73946L22.5564 9.71725C22.8793 12.4142 23.042 13.7627 22.2709 14.6307C21.4998 15.5 20.1422 15.5 17.4272 15.5H13.5741C10.8577 15.5 9.50021 15.5 8.73037 14.6307C7.95925 13.7627 8.12071 12.4142 8.44363 9.71725L8.56117 8.73946Z" stroke="#474747" stroke-width="1.5"/>
<path d="M15.5002 28.4167V25.8334M15.5002 25.8334V22.6042M15.5002 25.8334L16.1021 25.9832C16.7094 26.1351 17.2686 26.4377 17.7278 26.8631C18.1871 27.2884 18.5315 27.8228 18.7293 28.4167M15.5002 25.8334L14.8982 25.9832C14.2909 26.1351 13.7318 26.4377 13.2725 26.8631C12.8133 27.2884 12.4688 27.8228 12.271 28.4167M7.75016 20.6667L6.63287 17.3149C6.53858 17.0307 6.49079 16.8886 6.40037 16.6923C6.34057 16.5597 6.27151 16.4315 6.1937 16.3087C5.606 15.3399 4.82325 14.8542 2.5835 14.8542M23.2502 20.6667L24.3675 17.3149C24.4617 17.0307 24.5095 16.8886 24.6 16.6923C24.693 16.4947 24.7291 16.4327 24.8066 16.3087C25.3956 15.3399 26.1797 14.8542 28.4168 14.8542" stroke="#474747" stroke-width="1.5" stroke-linecap="round"/>
</svg>
