<svg width="35" height="35" viewBox="0 0 35 35" fill="none" xmlns="http://www.w3.org/2000/svg">
<path d="M29.2229 5.77722L18.8026 16.8487M14.1734 16.3082C10.9432 17.5482 8.36026 17.3359 5.77734 16.3121C6.42861 24.7043 10.3414 27.9306 15.558 29.2227C15.558 29.2227 19.4878 26.4431 20.0544 19.8536C20.1156 19.1399 20.1455 18.7843 19.9984 18.3818C19.8499 17.9793 19.5581 17.6915 18.9759 17.1144C18.0172 16.1662 17.5392 15.6921 16.97 15.5722C16.4008 15.455 15.6583 15.739 14.1734 16.3082Z" stroke="#2F4C94" stroke-width="1.5" stroke-linecap="round" stroke-linejoin="round"/>
<path d="M7.73096 23.291C7.73096 23.291 10.9873 23.9214 14.2436 21.4075M16.1974 7.07971V7.20996M12.9411 11.3129C12.9411 11.7447 12.7695 12.1589 12.4642 12.4642C12.1589 12.7696 11.7447 12.9411 11.3129 12.9411C10.8811 12.9411 10.467 12.7696 10.1616 12.4642C9.85629 12.1589 9.68475 11.7447 9.68475 11.3129C9.68475 10.8811 9.85629 10.467 10.1616 10.1616C10.467 9.85631 10.8811 9.68477 11.3129 9.68477C11.7447 9.68477 12.1589 9.85631 12.4642 10.1616C12.7695 10.467 12.9411 10.8811 12.9411 11.3129Z" stroke="#2F4C94" stroke-width="1.5" stroke-linecap="round" stroke-linejoin="round"/>
</svg>
