<svg width="33" height="33" viewBox="0 0 33 33" fill="none" xmlns="http://www.w3.org/2000/svg">
<path d="M8.25 27.5V30.25M24.75 27.5V30.25M16.5 27.5V2.75M12.375 13.75V15.125M20.625 13.75V15.125M4.125 19.25V11C4.125 7.1115 4.125 5.16587 5.40375 3.95862C6.6825 2.75137 8.74225 2.75 12.8604 2.75H20.1396C24.2578 2.75 26.3161 2.75 27.5962 3.95862C28.875 5.16587 28.875 7.1115 28.875 11V19.25C28.875 23.1385 28.875 25.0841 27.5962 26.2914C26.3175 27.4986 24.2578 27.5 20.1396 27.5H12.8604C8.74225 27.5 6.68388 27.5 5.40375 26.2914C4.125 25.0841 4.125 23.1385 4.125 19.25Z" stroke="#474747" stroke-width="1.5" stroke-linecap="round" stroke-linejoin="round"/>
</svg>
