<svg width="35" height="35" viewBox="0 0 35 35" fill="none" xmlns="http://www.w3.org/2000/svg">
<path d="M17.5003 30.5696C14.57 29.6995 12.1361 27.9247 10.1985 25.2452C8.26081 22.5658 7.29199 19.5465 7.29199 16.1875V8.30085L17.5003 4.4873L27.7087 8.30085V16.1875C27.7087 19.5456 26.7398 22.5643 24.8022 25.2438C22.8646 27.9232 20.4306 29.6975 17.5003 30.5696ZM17.5003 29.0223C20.0281 28.2202 22.1184 26.6161 23.7712 24.2098C25.4239 21.8036 26.2503 19.1299 26.2503 16.189V9.29689L17.5003 6.0448L8.75033 9.29689V16.1875C8.75033 19.1285 9.57671 21.8021 11.2295 24.2083C12.8823 26.6146 14.9725 28.2202 17.5003 29.0223Z" fill="#2F4C94"/>
</svg>
