<svg width="175" height="69" viewBox="0 0 175 69" fill="none" xmlns="http://www.w3.org/2000/svg">
<path fill-rule="evenodd" clip-rule="evenodd" d="M165.819 22.0884L172.932 29.2014C175.69 31.9602 175.69 36.4643 172.931 39.2231L145.799 66.3555C143.04 69.114 138.536 69.114 135.777 66.3555C120.201 50.7791 121.573 52.1511 108.645 39.2229C105.887 36.4641 105.887 31.9602 108.645 29.2014L135.777 2.069C138.536 -0.68949 143.04 -0.689757 145.799 2.06874L165.819 22.0884Z" fill="white"/>
<path d="M125.475 28.0925C125.475 26.4565 125.988 25.2093 127.016 24.3515C128.043 23.493 129.481 23.0642 131.323 23.0642H137.024V33.2822H131.169C130.18 33.2822 129.327 33.1477 128.608 32.8795C127.882 32.6113 127.292 32.2425 126.829 31.78C126.361 31.3108 126.02 30.7676 125.802 30.1375C125.584 29.507 125.475 28.8301 125.475 28.0925ZM110.047 30.6035L137.179 3.47112C139.164 1.48634 142.412 1.48634 144.397 3.47085L163.269 22.3435L148.109 45.1881V19.6736H144.283V51.8051H148.109L165.795 24.8688L171.529 30.6035C173.514 32.5882 173.514 35.8363 171.529 37.8211L144.397 64.9535C142.412 66.9382 139.164 66.9382 137.179 64.9535L122.478 50.2524L131.753 36.5603H137.024V51.7674H141.383V19.7455H130.944C129.34 19.7455 127.927 19.9396 126.695 20.3284C125.468 20.7109 124.435 21.2602 123.6 21.9776C122.766 22.6885 122.137 23.5601 121.713 24.5858C121.283 25.6185 121.071 26.7713 121.071 28.0521C121.071 28.9709 121.2 29.8626 121.456 30.7143C121.713 31.5721 122.111 32.3635 122.644 33.0741C123.176 33.7846 123.851 34.4082 124.666 34.9309C125.482 35.4541 126.444 35.8428 127.561 36.0911L119.592 47.3657L110.047 37.8208C108.062 35.8363 108.062 32.5882 110.047 30.6035Z" fill="url(#paint0_linear_313_2596)"/>
<path d="M110.047 30.6035L114.502 26.1484C116.635 27.9428 118.975 29.5045 121.481 30.7941C121.738 31.6214 122.128 32.3855 122.644 33.0741C123.176 33.7846 123.851 34.4082 124.666 34.9309C125.482 35.4541 126.444 35.8428 127.561 36.0911L119.592 47.3657L110.047 37.8208C108.062 35.836 108.062 32.5882 110.047 30.6035ZM141.383 34.8516C142.36 34.783 143.327 34.6776 144.283 34.5366V51.8051H148.109L165.795 24.8688L171.529 30.6035C173.514 32.5882 173.514 35.836 171.529 37.8208L144.397 64.9537C142.412 66.9382 139.164 66.9382 137.179 64.9537L122.478 50.2523L131.753 36.5603H137.024V51.7674H141.383V34.8516ZM148.109 33.7663C151.912 32.7922 155.479 31.241 158.711 29.2131L148.109 45.1881V33.7663Z" fill="url(#paint1_linear_313_2596)"/>
<path fill-rule="evenodd" clip-rule="evenodd" d="M65.2021 35.6403C64.6799 35.6403 64.2068 35.5515 63.7634 35.3644C63.3296 35.177 62.9551 34.9208 62.6495 34.5856C62.3343 34.2605 62.0976 33.8661 61.9204 33.4029C61.7528 32.9397 61.6641 32.4274 61.6641 31.8556C61.6641 31.294 61.7429 30.7814 61.9105 30.3182C62.078 29.855 62.3144 29.4607 62.62 29.1256C62.9257 28.7905 63.3001 28.5343 63.7239 28.357C64.1574 28.1697 64.6404 28.0809 65.1726 28.0809C65.6063 28.0809 66.0104 28.1302 66.3849 28.2386C66.7593 28.357 67.0848 28.5047 67.3705 28.7116C67.6464 28.9186 67.8732 29.165 68.0506 29.4507C68.2182 29.7367 68.3264 30.052 68.356 30.4069H67.3606C67.3113 29.9437 67.1044 29.5789 66.7398 29.313C66.3749 29.0468 65.8527 28.9087 65.1924 28.9087C64.8179 28.9087 64.4729 28.9779 64.1673 29.106C63.852 29.2342 63.5859 29.4213 63.3691 29.6776C63.1423 29.9239 62.9747 30.2295 62.8565 30.5941C62.7283 30.9589 62.6694 31.3824 62.6694 31.8556C62.6694 32.3189 62.7283 32.7327 62.8468 33.0976C62.9747 33.4622 63.1422 33.7678 63.3591 34.0238C63.5859 34.28 63.8521 34.4774 64.1575 34.6055C64.4729 34.7433 64.8179 34.8124 65.2021 34.8124C66.2567 34.8124 67.0355 34.4576 67.5478 33.7678V32.6539H65.6162V31.7768H68.4841V35.5121H67.7943L67.5478 34.7433C67.0551 35.3446 66.2667 35.6403 65.2021 35.6403Z" fill="#0095D8"/>
<path fill-rule="evenodd" clip-rule="evenodd" d="M71.8746 35.798C71.8746 36.2022 71.8452 36.5174 71.776 36.7539C71.717 37.0004 71.6184 37.1876 71.5001 37.3157C71.3819 37.4538 71.234 37.5425 71.0665 37.5916C70.8989 37.6409 70.7117 37.6608 70.5048 37.6608C70.2485 37.6608 70.0415 37.6409 69.874 37.6015V36.8032C70.0513 36.8525 70.2287 36.882 70.4062 36.882C70.5048 36.882 70.5837 36.8624 70.6526 36.8329C70.7215 36.8032 70.7708 36.7442 70.8101 36.6654C70.8595 36.5864 70.889 36.4681 70.8989 36.3303C70.9187 36.1922 70.9286 36.0048 70.9286 35.788V30.2196H71.8746V35.798ZM71.8746 29.2242H70.9286V28.2091H71.8746V29.2242Z" fill="#0095D8"/>
<path fill-rule="evenodd" clip-rule="evenodd" d="M76.4981 30.1014C76.8727 30.1014 77.2176 30.1606 77.5233 30.2885C77.8289 30.4166 78.0948 30.5941 78.3117 30.8308C78.5186 31.0673 78.6862 31.353 78.8044 31.698C78.9229 32.0331 78.9818 32.4274 78.9818 32.8609C78.9818 33.3143 78.9229 33.7085 78.8044 34.0535C78.6862 34.3985 78.5087 34.6843 78.2921 34.9208C78.0752 35.1475 77.809 35.3248 77.5133 35.4529C77.2078 35.5714 76.863 35.6303 76.4981 35.6303C76.1336 35.6303 75.7985 35.5714 75.4929 35.4529C75.1876 35.3248 74.9313 35.1475 74.7045 34.9208C74.4876 34.6843 74.3201 34.3985 74.2018 34.0535C74.0836 33.7085 74.0244 33.3143 74.0244 32.8609C74.0244 32.4175 74.0836 32.0133 74.2018 31.6685C74.3201 31.3235 74.4876 31.0377 74.7045 30.811C74.9313 30.5745 75.1876 30.3971 75.4929 30.2789C75.7985 30.1607 76.1336 30.1014 76.4981 30.1014ZM76.4981 34.8814C76.9614 34.8814 77.3359 34.7138 77.6021 34.3787C77.8682 34.0436 78.006 33.5311 78.006 32.8609C78.006 32.5259 77.9667 32.2302 77.8978 31.9739C77.8289 31.7176 77.7203 31.5009 77.5922 31.3334C77.4544 31.1659 77.2965 31.0377 77.1094 30.9589C76.922 30.8702 76.7151 30.8308 76.4981 30.8308C76.2717 30.8308 76.0647 30.8702 75.8773 30.9589C75.6902 31.0474 75.5323 31.1855 75.3945 31.353C75.2663 31.5305 75.1578 31.7375 75.0889 31.9937C75.02 32.25 74.9806 32.5357 74.9806 32.8609C74.9806 33.5311 75.1184 34.0338 75.3846 34.3688C75.6508 34.7138 76.0253 34.8814 76.4981 34.8814Z" fill="#0095D8"/>
<path fill-rule="evenodd" clip-rule="evenodd" d="M83.88 31.0673C83.7323 31.0278 83.535 31.008 83.3085 31.008C82.8353 31.008 82.4313 31.2544 82.0764 31.7569V35.5121H81.1304V30.2196H82.0764V30.9589C82.4509 30.3871 82.9141 30.1014 83.4562 30.1014C83.5251 30.1014 83.5942 30.1014 83.6631 30.1014C83.7323 30.1112 83.8012 30.1209 83.88 30.1308V31.0673ZM94.1104 35.6303C93.726 35.6303 93.3711 35.5714 93.0558 35.4432C92.7403 35.3247 92.4744 35.1376 92.2377 34.9108C92.0112 34.6744 91.8337 34.3887 91.7155 34.0436C91.5874 33.6986 91.5281 33.3046 91.5281 32.8609C91.5281 32.4274 91.5874 32.0331 91.7155 31.698C91.8337 31.353 92.0013 31.0673 92.2181 30.8308C92.435 30.5941 92.7009 30.4166 92.9966 30.2885C93.3022 30.1606 93.6373 30.1014 94.0019 30.1014C94.3764 30.1014 94.7214 30.1606 95.027 30.2885C95.3325 30.4166 95.5985 30.5941 95.8154 30.8308C96.0223 31.0673 96.1899 31.353 96.3081 31.698C96.4265 32.0331 96.4856 32.4274 96.4856 32.8609V33.0877H92.494C92.5237 33.3933 92.5827 33.6691 92.6714 33.8959C92.7601 34.1224 92.8684 34.3098 93.0164 34.4576C93.1545 34.6055 93.322 34.7039 93.5092 34.773C93.6965 34.8419 93.8936 34.8814 94.1104 34.8814C94.268 34.8814 94.4257 34.8618 94.5736 34.8222C94.7313 34.7827 94.8693 34.7237 94.9876 34.6449C95.1058 34.5661 95.2141 34.4576 95.2931 34.3393C95.372 34.2211 95.4113 34.0831 95.4213 33.9254H96.3871C96.3475 34.2013 96.2686 34.4476 96.1308 34.6545C96.0028 34.8715 95.8352 35.0489 95.6379 35.1969C95.4309 35.3347 95.2044 35.4432 94.9481 35.5221C94.682 35.591 94.4061 35.6303 94.1104 35.6303ZM95.4902 32.3484C95.4113 31.8361 95.2438 31.4516 94.9876 31.2053C94.7313 30.9589 94.4061 30.8308 94.0019 30.8308C93.8148 30.8308 93.6373 30.8603 93.4796 30.9192C93.3121 30.9785 93.1642 31.0673 93.036 31.1953C92.9079 31.3235 92.7996 31.4812 92.7108 31.6685C92.6221 31.8557 92.5631 32.0824 92.5237 32.3484H95.4902Z" fill="#0095D8"/>
<path fill-rule="evenodd" clip-rule="evenodd" d="M100.691 35.5714C100.583 35.6009 100.475 35.6107 100.366 35.6205C100.258 35.6303 100.14 35.6303 100.011 35.6303C99.7158 35.6303 99.479 35.591 99.3215 35.5221C99.1539 35.4432 99.0357 35.3347 98.9469 35.1969C98.8681 35.0588 98.8188 34.8814 98.7992 34.6843C98.7794 34.4774 98.7695 34.2506 98.7695 33.9943V30.9685H98.1191V30.2196H98.7695V28.9186H99.7058V30.2196H100.563V30.9685H99.7058V34.0436C99.7058 34.231 99.7158 34.3787 99.7353 34.487C99.7651 34.6055 99.7946 34.6843 99.8439 34.7433C99.8929 34.8026 99.9423 34.8419 100.011 34.8618C100.07 34.8814 100.14 34.8912 100.218 34.8912C100.307 34.8912 100.386 34.8912 100.455 34.8814C100.534 34.8814 100.612 34.8715 100.691 34.8618V35.5714Z" fill="#0095D8"/>
<path fill-rule="evenodd" clip-rule="evenodd" d="M31.2368 47.8619H33.3524V44.9492L35.968 44.0995V47.8619H39.0673V50.1902H35.968V56.7983C35.968 57.265 36.0143 57.9766 36.3196 58.359C36.5868 58.6943 37.0572 58.7659 37.46 58.7659C37.861 58.7659 38.2263 58.6661 38.5465 58.4219L39.0673 58.0259V60.5562L38.8992 60.6486C38.3029 60.976 37.5772 61.0702 36.9066 61.0702C34.4003 61.0702 33.3524 59.5308 33.3524 57.1428V50.1902H31.2368V48.1677L25.5177 54.1168L31.9803 60.8077H28.3112L23.301 55.3543V60.8077H20.6812V41.9539H23.301V53.0387L28.045 47.8619H31.2368ZM2.66512 53.4823V60.8077H0V42.9381H5.46435C6.19794 42.9381 6.93484 43.0254 7.63948 43.2348C8.28554 43.4261 8.88683 43.7223 9.40908 44.1511C9.92337 44.5734 10.3167 45.0967 10.5963 45.7007C10.9075 46.3748 11.0236 47.1109 11.0236 47.8495C11.0236 48.448 10.9378 49.0464 10.7341 49.6112C10.5443 50.1366 10.2708 50.6212 9.90921 51.0475C9.54487 51.4775 9.11137 51.8369 8.62488 52.1219C8.31256 52.3046 7.98643 52.4575 7.6491 52.5831C7.71258 52.6255 7.77501 52.6699 7.83595 52.7167C8.07194 52.9061 8.29 53.1155 8.48017 53.3428C8.6985 53.5936 8.89654 53.8623 9.07989 54.1394C9.29778 54.4678 9.50868 54.8009 9.71144 55.1345L13.2561 60.8077H10.0855L7.10482 55.821C6.87731 55.4406 6.63616 55.0557 6.36179 54.7072C6.15631 54.4459 5.92208 54.1959 5.65715 53.9939C5.43332 53.8221 5.18744 53.6905 4.91779 53.6072C4.62191 53.5158 4.30636 53.4823 3.9971 53.4823H2.66512ZM15.6477 45.3859C15.2136 45.3859 14.8327 45.2362 14.5199 44.9343C14.201 44.6257 14.0528 44.2331 14.0528 43.791C14.0528 43.3488 14.2015 42.953 14.5184 42.6417C14.8293 42.3356 15.2107 42.1797 15.6477 42.1797C16.0873 42.1797 16.4753 42.3341 16.7912 42.6397C17.1132 42.9512 17.2711 43.3434 17.2711 43.791C17.2711 44.2317 17.1064 44.6121 16.793 44.9197C16.4777 45.23 16.0896 45.3859 15.6477 45.3859ZM16.935 57.0483C16.935 57.7666 17.0894 58.4172 17.9187 58.4172C18.205 58.4172 18.4954 58.3855 18.7693 58.3002L19.1897 58.1701V60.6434L18.9426 60.7038C18.7328 60.7554 18.5172 60.7913 18.3031 60.8213C18.025 60.8593 17.7447 60.8813 17.4636 60.8813C17.046 60.8813 16.6343 60.8149 16.2425 60.6682C15.8538 60.5224 15.5148 60.2991 15.2283 59.9985C14.9271 59.6822 14.7088 59.3033 14.5567 58.8953C14.3789 58.4197 14.315 57.9029 14.315 57.3966V47.8619H16.935V57.0483ZM42.2482 45.3859C41.8141 45.3859 41.4333 45.2362 41.1204 44.9343C40.8015 44.6257 40.6533 44.2331 40.6533 43.791C40.6533 43.3488 40.802 42.953 41.119 42.6417C41.4298 42.3356 41.8112 42.1797 42.2482 42.1797C42.6879 42.1797 43.0758 42.3341 43.3917 42.6397C43.7137 42.9512 43.8716 43.3434 43.8716 43.791C43.8716 44.2317 43.7068 44.6121 43.3935 44.9197C43.0782 45.23 42.6901 45.3859 42.2482 45.3859ZM43.5355 57.0483C43.5355 57.7666 43.6899 58.4172 44.5192 58.4172C44.8055 58.4172 45.0959 58.3855 45.3698 58.3002L45.7899 58.1701V60.6434L45.5428 60.7038C45.3332 60.7554 45.1175 60.7913 44.9036 60.8213C44.6255 60.8593 44.3452 60.8813 44.0641 60.8813C43.6465 60.8813 43.2349 60.8149 42.843 60.6682C42.4544 60.5224 42.1154 60.2991 41.8288 59.9985C41.5277 59.6822 41.3093 59.3033 41.1572 58.8953C40.9794 58.4197 40.9155 57.9029 40.9155 57.3966V47.8619H43.5355V57.0483ZM55.8082 59.3675C54.8232 60.5304 53.4898 61.0945 51.8567 61.0945C50.2844 61.0945 48.9462 60.5423 47.9209 59.341C46.8162 58.0469 46.4412 56.4 46.4412 54.7322C46.4412 52.8788 46.8281 51.0101 48.0226 49.5428C49.1381 48.1724 50.6457 47.5744 52.398 47.5744C53.7845 47.5744 54.9434 48.0168 55.8082 48.971V47.8619H58.4284V59.4996C58.4284 64.0501 56.259 66.5962 51.6188 66.5962C50.1872 66.5962 48.7686 66.3474 47.4837 65.6961L47.3062 65.6058V62.8889L47.7873 63.1551C48.953 63.8007 50.2484 64.2672 51.5947 64.2672C54.5727 64.2672 55.8082 62.6529 55.8082 59.7621V59.3675ZM74.4563 57.0677C74.4872 56.9723 74.5199 56.8778 74.5531 56.7837L79.4958 42.9381H82.3628L75.7436 60.8077H73.0693L66.591 42.9381H69.5301L74.373 56.8104C74.4027 56.8954 74.4302 56.9812 74.4563 57.0677ZM88.8495 59.5239C87.9776 60.5576 86.8078 61.0945 85.3447 61.0945C84.2098 61.0945 83.0936 60.8285 82.2459 60.0359C81.4411 59.2835 81.106 58.3074 81.106 57.2164C81.106 54.4785 82.92 53.2399 85.4434 52.8863L88.8446 52.4096C88.7893 50.9763 88.2829 49.8791 86.6402 49.8791C85.1965 49.8791 83.9406 50.3845 82.8404 51.3149L82.3071 51.7655V48.8726L82.4567 48.7767C83.776 47.9367 85.2488 47.5744 86.808 47.5744C89.9965 47.5744 91.4695 49.3755 91.4695 52.4857V60.8077H88.8495V59.5239ZM97.0198 57.0483C97.0198 57.7666 97.1742 58.4172 98.0035 58.4172C98.2898 58.4172 98.5802 58.3855 98.8542 58.3002L99.2742 58.1701V60.6434L99.0271 60.7038C98.8174 60.7554 98.6018 60.7913 98.388 60.8213C98.1098 60.8593 97.8295 60.8813 97.5485 60.8813C97.1308 60.8813 96.7189 60.8149 96.3273 60.6682C95.9387 60.5224 95.5997 60.2991 95.3129 59.9985C95.0117 59.6822 94.7937 59.3033 94.6414 58.8953C94.4635 58.4197 94.3998 57.9029 94.3998 57.3966V41.9539H97.0198V57.0483ZM109.293 59.3675C108.308 60.5304 106.974 61.0945 105.341 61.0945C103.768 61.0945 102.431 60.5423 101.405 59.341C100.301 58.0469 99.9253 56.4 99.9253 54.7322C99.9253 52.8788 100.313 51.0101 101.507 49.5428C102.622 48.1724 104.13 47.5744 105.882 47.5744C107.269 47.5744 108.428 48.0168 109.293 48.971V47.8619H111.913V59.4996C111.913 64.0501 109.743 66.5962 105.103 66.5962C103.672 66.5962 102.253 66.3474 100.968 65.6961L100.791 65.6058V62.8889L101.272 63.1551C102.437 63.8007 103.733 64.2672 105.079 64.2672C108.057 64.2672 109.293 62.6529 109.293 59.7621V59.3675ZM2.66512 45.4106V51.0095H5.0792C5.51786 51.0095 5.95434 50.9454 6.3687 50.7987C6.74021 50.6668 7.07806 50.4757 7.3693 50.2093C7.65556 49.9473 7.87171 49.632 8.02385 49.2753C8.19409 48.8778 8.26001 48.4478 8.26001 48.0175C8.26001 47.2703 8.05235 46.6038 7.47834 46.1061C6.83893 45.5522 5.92164 45.4106 5.10368 45.4106H2.66512ZM55.8082 54.9248V53.1086C55.8082 52.225 55.5177 51.4656 54.9095 50.8231C54.3023 50.1817 53.5582 49.8791 52.6766 49.8791C51.6151 49.8791 50.7283 50.2365 50.0707 51.082C49.3091 52.0617 49.1066 53.3889 49.1066 54.5967C49.1066 55.6924 49.326 56.8084 50.0268 57.6814C50.6361 58.4398 51.4292 58.7902 52.398 58.7902C53.3775 58.7902 54.2014 58.4606 54.8525 57.7232C55.548 56.9351 55.8082 55.963 55.8082 54.9248ZM88.8495 54.6329L86.2538 54.992C85.6287 55.0784 84.8549 55.247 84.3298 55.6162C83.8695 55.9397 83.7709 56.548 83.7709 57.0729C83.7709 57.5656 83.9364 57.9736 84.306 58.3027C84.7212 58.6718 85.2564 58.7902 85.7998 58.7902C86.6613 58.7902 87.392 58.4995 87.9815 57.8685C88.602 57.2035 88.8495 56.3876 88.8495 55.4867V54.6329ZM109.293 54.9248V53.1086C109.293 52.225 109.002 51.4656 108.394 50.8231C107.786 50.1817 107.043 49.8791 106.161 49.8791C105.099 49.8791 104.213 50.2365 103.555 51.082C102.793 52.0617 102.591 53.3889 102.591 54.5967C102.591 55.6924 102.81 56.8084 103.511 57.6814C104.12 58.4398 104.914 58.7902 105.882 58.7902C106.862 58.7902 107.686 58.4606 108.337 57.7232C109.032 56.9351 109.293 55.963 109.293 54.9248Z" fill="white"/>
<path fill-rule="evenodd" clip-rule="evenodd" d="M79.2217 30.7715L78.5527 30.1026L73.6436 35.0117L74.3125 35.6807L79.2217 30.7715Z" fill="#0095D8"/>
<defs>
<linearGradient id="paint0_linear_313_2596" x1="141.036" y1="1.93357" x2="141.036" y2="34.066" gradientUnits="userSpaceOnUse">
<stop stop-color="#003F8A"/>
<stop offset="1" stop-color="#0095D8"/>
</linearGradient>
<linearGradient id="paint1_linear_313_2596" x1="141.036" y1="0.622043" x2="141.036" y2="66.1984" gradientUnits="userSpaceOnUse">
<stop stop-color="#002C6F"/>
<stop offset="0.67" stop-color="#004995"/>
<stop offset="1" stop-color="#0078B9"/>
</linearGradient>
</defs>
</svg>
