<svg width="31" height="31" viewBox="0 0 31 31" fill="none" xmlns="http://www.w3.org/2000/svg">
<path d="M18.6465 27.0449C16.072 27.0411 13.5436 26.3615 11.3141 25.0739C9.08469 23.7864 7.23239 21.936 5.94247 19.7079C4.65255 17.4799 3.97022 14.9522 3.96373 12.3777C3.95724 9.80315 4.62682 7.27204 5.90549 5.0375C6.07237 4.74862 6.30399 4.50238 6.58213 4.31815C6.86027 4.13392 7.17735 4.01671 7.50845 3.97575C7.84932 3.92902 8.1964 3.96209 8.52231 4.07237C8.84823 4.18266 9.14407 4.36713 9.38653 4.61125L13.4411 8.66708C13.6471 8.87282 13.8105 9.11716 13.922 9.38611C14.0335 9.65507 14.0909 9.94337 14.0909 10.2345C14.0909 10.5257 14.0335 10.814 13.922 11.0829C13.8105 11.3519 13.6471 11.5962 13.4411 11.802L13.06 12.1895C12.5921 12.6585 12.3294 13.294 12.3294 13.9565C12.3294 14.619 12.5921 15.2544 13.06 15.7235L15.2817 17.9464C15.758 18.4003 16.3907 18.6535 17.0487 18.6535C17.7067 18.6535 18.3394 18.4003 18.8157 17.9464L19.1903 17.5718C19.6067 17.1569 20.1705 16.924 20.7584 16.924C21.3462 16.924 21.91 17.1569 22.3264 17.5718L26.381 21.6264C26.6253 21.869 26.8099 22.165 26.9202 22.4912C27.0305 22.8173 27.0634 23.1647 27.0165 23.5058C26.9751 23.8364 26.8578 24.153 26.6735 24.4306C26.4893 24.7083 26.2433 24.9395 25.9547 25.1061C23.7312 26.3831 21.2106 27.0518 18.6465 27.0449ZM7.80424 5.24804C7.76108 5.24847 7.71797 5.25105 7.67507 5.25579C7.54161 5.27199 7.41376 5.31907 7.30166 5.39328C7.18955 5.46749 7.09628 5.5668 7.02924 5.68333C5.56546 8.23559 4.98231 11.1986 5.36976 14.1152C5.75722 17.0318 7.09375 19.7398 9.17311 21.8214C11.2525 23.903 13.9591 25.2424 16.8753 25.6329C19.7914 26.0235 22.7551 25.4434 25.3089 23.9824C25.4254 23.9153 25.5247 23.8221 25.599 23.71C25.6732 23.5979 25.7202 23.47 25.7364 23.3365C25.7566 23.1918 25.7428 23.0443 25.6962 22.9058C25.6496 22.7672 25.5714 22.6414 25.4678 22.5383L21.4132 18.4838C21.3272 18.3978 21.2251 18.3295 21.1128 18.283C21.0004 18.2364 20.88 18.2125 20.7584 18.2125C20.6367 18.2125 20.5163 18.2364 20.4039 18.283C20.2916 18.3295 20.1895 18.3978 20.1035 18.4838L19.7289 18.8583C19.0067 19.5474 18.0469 19.9318 17.0487 19.9318C16.0505 19.9318 15.0907 19.5474 14.3685 18.8583L12.1417 16.6315C11.433 15.9198 11.0351 14.9563 11.0351 13.9519C11.0351 12.9476 11.433 11.9841 12.1417 11.2724L12.5292 10.8849C12.6152 10.7989 12.6834 10.6968 12.7299 10.5844C12.7765 10.4721 12.8004 10.3516 12.8004 10.23C12.8004 10.1084 12.7765 9.98795 12.7299 9.87558C12.6834 9.76322 12.6152 9.66112 12.5292 9.57513L8.47332 5.52446C8.38551 5.43658 8.28119 5.36692 8.16636 5.31948C8.05154 5.27204 7.92847 5.24777 7.80424 5.24804Z" fill="white"/>
</svg>
