<svg width="31" height="32" viewBox="0 0 31 32" fill="none" xmlns="http://www.w3.org/2000/svg">
<path d="M18.6467 27.3459C16.0721 27.3421 13.5437 26.6625 11.3143 25.3749C9.08487 24.0873 7.23257 22.237 5.94265 20.0089C4.65273 17.7808 3.9704 15.2531 3.96391 12.6786C3.95742 10.1041 4.627 7.57301 5.90567 5.33846C6.07255 5.04958 6.30417 4.80334 6.58231 4.61911C6.86045 4.43488 7.17753 4.31768 7.50863 4.27671C7.84951 4.22998 8.19658 4.26306 8.52249 4.37334C8.84841 4.48362 9.14425 4.66809 9.38671 4.91221L13.4413 8.96805C13.6473 9.17379 13.8107 9.41812 13.9222 9.68707C14.0337 9.95603 14.0911 10.2443 14.0911 10.5355C14.0911 10.8266 14.0337 11.1149 13.9222 11.3839C13.8107 11.6528 13.6473 11.8972 13.4413 12.1029L13.0602 12.4904C12.5923 12.9595 12.3296 13.5949 12.3296 14.2574C12.3296 14.9199 12.5923 15.5554 13.0602 16.0244L15.2819 18.2474C15.7582 18.7013 16.3909 18.9545 17.0489 18.9545C17.7068 18.9545 18.3396 18.7013 18.8159 18.2474L19.1905 17.8728C19.6069 17.4579 20.1707 17.225 20.7585 17.225C21.3464 17.225 21.9102 17.4579 22.3266 17.8728L26.3812 21.9273C26.6255 22.1699 26.8101 22.466 26.9204 22.7922C27.0306 23.1183 27.0636 23.4656 27.0167 23.8067C26.9753 24.1374 26.8579 24.4539 26.6737 24.7316C26.4895 25.0093 26.2435 25.2405 25.9549 25.4071C23.7314 26.6841 21.2108 27.3528 18.6467 27.3459ZM7.80442 5.549C7.76126 5.54943 7.71815 5.55201 7.67525 5.55675C7.54179 5.57296 7.41394 5.62003 7.30184 5.69424C7.18974 5.76846 7.09646 5.86776 7.02942 5.9843C5.56564 8.53655 4.98249 11.4996 5.36995 14.4162C5.7574 17.3328 7.09393 20.0408 9.17329 22.1224C11.2527 24.2039 13.9593 25.5433 16.8754 25.9339C19.7916 26.3244 22.7553 25.7444 25.3091 24.2833C25.4256 24.2163 25.5249 24.123 25.5991 24.0109C25.6734 23.8988 25.7204 23.771 25.7366 23.6375C25.7568 23.4927 25.743 23.3453 25.6964 23.2067C25.6498 23.0682 25.5716 22.9424 25.468 22.8393L21.4134 18.7847C21.3274 18.6987 21.2253 18.6305 21.113 18.584C21.0006 18.5374 20.8802 18.5135 20.7585 18.5135C20.6369 18.5135 20.5165 18.5374 20.4041 18.584C20.2918 18.6305 20.1897 18.6987 20.1037 18.7847L19.7291 19.1593C19.0069 19.8483 18.047 20.2327 17.0489 20.2327C16.0507 20.2327 15.0909 19.8483 14.3687 19.1593L12.1418 16.9325C11.4331 16.2208 11.0352 15.2573 11.0352 14.2529C11.0352 13.2485 11.4331 12.285 12.1418 11.5733L12.5293 11.1858C12.6153 11.0998 12.6836 10.9977 12.7301 10.8854C12.7766 10.773 12.8006 10.6526 12.8006 10.531C12.8006 10.4093 12.7766 10.2889 12.7301 10.1765C12.6836 10.0642 12.6153 9.96209 12.5293 9.87609L8.4735 5.82542C8.38569 5.73754 8.28137 5.66788 8.16655 5.62044C8.05172 5.57301 7.92866 5.54873 7.80442 5.549Z" fill="#2F4C94"/>
</svg>
