<svg width="28" height="28" viewBox="0 0 28 28" fill="none" xmlns="http://www.w3.org/2000/svg">
<path d="M3.5 22.1667V5.83333C3.5 5.21449 3.74583 4.621 4.18342 4.18342C4.621 3.74583 5.21449 3.5 5.83333 3.5H22.1667C22.7855 3.5 23.379 3.74583 23.8166 4.18342C24.2542 4.621 24.5 5.21449 24.5 5.83333V22.1667C24.5 22.7855 24.2542 23.379 23.8166 23.8166C23.379 24.2542 22.7855 24.5 22.1667 24.5H5.83333C5.21449 24.5 4.621 24.2542 4.18342 23.8166C3.74583 23.379 3.5 22.7855 3.5 22.1667Z" stroke="#474747" stroke-width="1.5"/>
<path d="M21.0002 16.3333V11.6667M14.5835 11.0833L15.7502 9.91667M8.75016 11.0833L7.5835 9.91667M7.5835 18.0833L8.75016 16.9167M15.7502 18.0833L14.5835 16.9167M2.3335 9.33333H3.50016M2.3335 7H3.50016M3.50016 18.6667H2.3335M3.50016 21H2.3335M11.6668 17.5C10.7386 17.5 9.84833 17.1313 9.19196 16.4749C8.53558 15.8185 8.16683 14.9283 8.16683 14C8.16683 13.0717 8.53558 12.1815 9.19196 11.5251C9.84833 10.8687 10.7386 10.5 11.6668 10.5C12.5951 10.5 13.4853 10.8687 14.1417 11.5251C14.7981 12.1815 15.1668 13.0717 15.1668 14C15.1668 14.9283 14.7981 15.8185 14.1417 16.4749C13.4853 17.1313 12.5951 17.5 11.6668 17.5Z" stroke="#474747" stroke-width="1.5" stroke-linecap="round" stroke-linejoin="round"/>
</svg>
