<svg width="28" height="27" viewBox="0 0 28 27" fill="none" xmlns="http://www.w3.org/2000/svg">
<path d="M14.8684 2.88462C14.8684 2.65 14.7769 2.425 14.6141 2.2591C14.4512 2.0932 14.2303 2 14 2C13.7697 2 13.5488 2.0932 13.3859 2.2591C13.2231 2.425 13.1316 2.65 13.1316 2.88462V4.35897H5.60526C4.9143 4.35897 4.25165 4.63858 3.76306 5.13627C3.27448 5.63396 3 6.30898 3 7.01282V16.7436C3 17.4474 3.27448 18.1225 3.76306 18.6201C4.25165 19.1178 4.9143 19.3974 5.60526 19.3974H9.26074L7.96853 23.239C7.9302 23.3493 7.91371 23.4661 7.92002 23.5829C7.92632 23.6997 7.95529 23.814 8.00525 23.9193C8.05521 24.0246 8.12516 24.1187 8.21107 24.1963C8.29698 24.2739 8.39714 24.3333 8.50574 24.3712C8.61435 24.4091 8.72926 24.4247 8.84382 24.4171C8.95837 24.4094 9.07031 24.3787 9.17315 24.3268C9.27598 24.2748 9.36768 24.2025 9.44294 24.1142C9.51819 24.0259 9.57551 23.9233 9.61158 23.8123L11.0972 19.3974H13.1316V24.1154C13.1316 24.35 13.2231 24.575 13.3859 24.7409C13.5488 24.9068 13.7697 25 14 25C14.2303 25 14.4512 24.9068 14.6141 24.7409C14.7769 24.575 14.8684 24.35 14.8684 24.1154V19.3974H16.9028L18.3896 23.8123C18.4659 24.0319 18.6243 24.212 18.8303 24.3134C19.0362 24.4148 19.2731 24.4293 19.4896 24.3538C19.706 24.2783 19.8844 24.1189 19.9861 23.9102C20.0878 23.7014 20.1045 23.4603 20.0326 23.239L18.7393 19.3974H22.3947C23.0857 19.3974 23.7484 19.1178 24.2369 18.6201C24.7255 18.1225 25 17.4474 25 16.7436V7.01282C25 6.30898 24.7255 5.63396 24.2369 5.13627C23.7484 4.63858 23.0857 4.35897 22.3947 4.35897H14.8684V2.88462ZM22.3947 17.6282H5.60526C5.37494 17.6282 5.15406 17.535 4.9912 17.3691C4.82834 17.2032 4.73684 16.9782 4.73684 16.7436V7.01282C4.73684 6.77821 4.82834 6.5532 4.9912 6.3873C5.15406 6.22141 5.37494 6.12821 5.60526 6.12821H22.3947C22.6251 6.12821 22.8459 6.22141 23.0088 6.3873C23.1717 6.5532 23.2632 6.77821 23.2632 7.01282V16.7436C23.2632 16.9782 23.1717 17.2032 23.0088 17.3691C22.8459 17.535 22.6251 17.6282 22.3947 17.6282Z" fill="#474747"/>
</svg>
