<svg width="35" height="35" viewBox="0 0 35 35" fill="none" xmlns="http://www.w3.org/2000/svg">
<path d="M24.0625 8.20312H10.9375C10.7925 8.20312 10.6534 8.26074 10.5508 8.3633C10.4482 8.46586 10.3906 8.60496 10.3906 8.75V15.3125C10.3906 15.4575 10.4482 15.5966 10.5508 15.6992C10.6534 15.8018 10.7925 15.8594 10.9375 15.8594H24.0625C24.2075 15.8594 24.3466 15.8018 24.4492 15.6992C24.5518 15.5966 24.6094 15.4575 24.6094 15.3125V8.75C24.6094 8.60496 24.5518 8.46586 24.4492 8.3633C24.3466 8.26074 24.2075 8.20312 24.0625 8.20312ZM23.5156 14.7656H11.4844V9.29688H23.5156V14.7656ZM27.3438 3.82812H7.65625C7.22113 3.82812 6.80383 4.00098 6.49615 4.30865C6.18848 4.61633 6.01563 5.03363 6.01563 5.46875V29.5312C6.01562 29.9664 6.18848 30.3837 6.49615 30.6913C6.80383 30.999 7.22113 31.1719 7.65625 31.1719H27.3438C27.7789 31.1719 28.1962 30.999 28.5038 30.6913C28.8115 30.3837 28.9844 29.9664 28.9844 29.5312V5.46875C28.9844 5.03363 28.8115 4.61633 28.5038 4.30865C28.1962 4.00098 27.7789 3.82812 27.3438 3.82812ZM27.8906 29.5312C27.8906 29.6763 27.833 29.8154 27.7304 29.9179C27.6279 30.0205 27.4888 30.0781 27.3438 30.0781H7.65625C7.51121 30.0781 7.37211 30.0205 7.26955 29.9179C7.16699 29.8154 7.10938 29.6763 7.10938 29.5312V5.46875C7.10938 5.32371 7.16699 5.18461 7.26955 5.08205C7.37211 4.97949 7.51121 4.92188 7.65625 4.92188H27.3438C27.4888 4.92188 27.6279 4.97949 27.7304 5.08205C27.833 5.18461 27.8906 5.32371 27.8906 5.46875V29.5312ZM13.125 20.2344C13.125 20.4507 13.0609 20.6622 12.9407 20.842C12.8205 21.0219 12.6497 21.1621 12.4498 21.2449C12.25 21.3277 12.03 21.3493 11.8179 21.3071C11.6057 21.2649 11.4108 21.1607 11.2579 21.0078C11.1049 20.8548 11.0007 20.6599 10.9585 20.4478C10.9163 20.2356 10.938 20.0157 11.0208 19.8158C11.1035 19.616 11.2437 19.4451 11.4236 19.325C11.6035 19.2048 11.8149 19.1406 12.0312 19.1406C12.3213 19.1406 12.5995 19.2559 12.8046 19.461C13.0098 19.6661 13.125 19.9443 13.125 20.2344ZM18.5938 20.2344C18.5938 20.4507 18.5296 20.6622 18.4094 20.842C18.2892 21.0219 18.1184 21.1621 17.9186 21.2449C17.7187 21.3277 17.4988 21.3493 17.2866 21.3071C17.0745 21.2649 16.8796 21.1607 16.7266 21.0078C16.5736 20.8548 16.4695 20.6599 16.4273 20.4478C16.3851 20.2356 16.4067 20.0157 16.4895 19.8158C16.5723 19.616 16.7125 19.4451 16.8923 19.325C17.0722 19.2048 17.2837 19.1406 17.5 19.1406C17.7901 19.1406 18.0683 19.2559 18.2734 19.461C18.4785 19.6661 18.5938 19.9443 18.5938 20.2344ZM24.0625 20.2344C24.0625 20.4507 23.9984 20.6622 23.8782 20.842C23.758 21.0219 23.5872 21.1621 23.3873 21.2449C23.1875 21.3277 22.9675 21.3493 22.7554 21.3071C22.5432 21.2649 22.3483 21.1607 22.1954 21.0078C22.0424 20.8548 21.9382 20.6599 21.896 20.4478C21.8538 20.2356 21.8755 20.0157 21.9583 19.8158C22.041 19.616 22.1812 19.4451 22.3611 19.325C22.541 19.2048 22.7524 19.1406 22.9688 19.1406C23.2588 19.1406 23.537 19.2559 23.7421 19.461C23.9473 19.6661 24.0625 19.9443 24.0625 20.2344ZM13.125 25.7031C13.125 25.9194 13.0609 26.1309 12.9407 26.3108C12.8205 26.4906 12.6497 26.6308 12.4498 26.7136C12.25 26.7964 12.03 26.8181 11.8179 26.7759C11.6057 26.7337 11.4108 26.6295 11.2579 26.4765C11.1049 26.3236 11.0007 26.1287 10.9585 25.9165C10.9163 25.7043 10.938 25.4844 11.0208 25.2846C11.1035 25.0847 11.2437 24.9139 11.4236 24.7937C11.6035 24.6735 11.8149 24.6094 12.0312 24.6094C12.3213 24.6094 12.5995 24.7246 12.8046 24.9297C13.0098 25.1348 13.125 25.413 13.125 25.7031ZM18.5938 25.7031C18.5938 25.9194 18.5296 26.1309 18.4094 26.3108C18.2892 26.4906 18.1184 26.6308 17.9186 26.7136C17.7187 26.7964 17.4988 26.8181 17.2866 26.7759C17.0745 26.7337 16.8796 26.6295 16.7266 26.4765C16.5736 26.3236 16.4695 26.1287 16.4273 25.9165C16.3851 25.7043 16.4067 25.4844 16.4895 25.2846C16.5723 25.0847 16.7125 24.9139 16.8923 24.7937C17.0722 24.6735 17.2837 24.6094 17.5 24.6094C17.7901 24.6094 18.0683 24.7246 18.2734 24.9297C18.4785 25.1348 18.5938 25.413 18.5938 25.7031ZM24.0625 25.7031C24.0625 25.9194 23.9984 26.1309 23.8782 26.3108C23.758 26.4906 23.5872 26.6308 23.3873 26.7136C23.1875 26.7964 22.9675 26.8181 22.7554 26.7759C22.5432 26.7337 22.3483 26.6295 22.1954 26.4765C22.0424 26.3236 21.9382 26.1287 21.896 25.9165C21.8538 25.7043 21.8755 25.4844 21.9583 25.2846C22.041 25.0847 22.1812 24.9139 22.3611 24.7937C22.541 24.6735 22.7524 24.6094 22.9688 24.6094C23.2588 24.6094 23.537 24.7246 23.7421 24.9297C23.9473 25.1348 24.0625 25.413 24.0625 25.7031Z" fill="#2F4C94"/>
</svg>
