<svg width="29" height="29" viewBox="0 0 29 29" fill="none" xmlns="http://www.w3.org/2000/svg">
<path d="M15.4062 5.43749C10.9543 5.43749 7.1877 8.35448 5.90762 12.376C7.81074 11.4131 9.95742 10.875 12.2344 10.875H17.2188C17.7172 10.875 18.125 11.2828 18.125 11.7812C18.125 12.2797 17.7172 12.6875 17.2188 12.6875H12.2344C11.2941 12.6875 10.3822 12.7951 9.49863 12.9934C8.03164 13.3275 6.67227 13.9223 5.45449 14.7322C2.16934 16.9242 0 20.6682 0 24.9219V25.8281C0 26.5814 0.606055 27.1875 1.35938 27.1875C2.1127 27.1875 2.71875 26.5814 2.71875 25.8281V24.9219C2.71875 22.1635 3.89121 19.6826 5.76602 17.9437C6.8875 22.2201 10.7787 25.375 15.4062 25.375H15.4629C22.9451 25.3353 29 17.9607 29 8.86991C29 6.45702 28.5752 4.16308 27.8049 2.09569C27.6576 1.70487 27.0855 1.72187 26.8873 2.09003C25.8225 4.08378 23.7154 5.43749 21.2969 5.43749H15.4062Z" fill="#90D000"/>
</svg>
